<mxfile host="Electron" modified="2024-05-03T14:34:14.860Z" agent="Mozilla/5.0 (Windows NT 10.0; Win64; x64) AppleWebKit/537.36 (KHTML, like Gecko) draw.io/24.2.5 Chrome/120.0.6099.109 Electron/28.1.0 Safari/537.36" etag="ktJETr033GCjze8vzprF" version="24.2.5" type="device">
  <diagram name="Organization" id="ynN78oTgX0Px0Qc10VjR">
    <mxGraphModel dx="2049" dy="1194" grid="1" gridSize="10" guides="1" tooltips="1" connect="1" arrows="1" fold="1" page="1" pageScale="1.5" pageWidth="827" pageHeight="1169" math="0" shadow="0">
      <root>
        <mxCell id="0" />
        <mxCell id="1" parent="0" />
        <mxCell id="iBzqbrWYD7J2i10mPG2j-7" value="" style="whiteSpace=wrap;html=1;fillColor=none;dashed=1;dashPattern=8 8;rounded=1;arcSize=2;strokeColor=#8C4FFF;strokeWidth=4;" parent="1" vertex="1">
          <mxGeometry x="290" y="472" width="1020" height="810" as="geometry" />
        </mxCell>
        <mxCell id="TYMXvzNvSo3Lo1fEAk2X-23" value="ETH private" style="text;strokeColor=none;align=center;fillColor=none;html=1;verticalAlign=middle;whiteSpace=wrap;rounded=0;fontSize=22;" parent="1" vertex="1">
          <mxGeometry x="926" y="1062" width="137" height="28" as="geometry" />
        </mxCell>
        <mxCell id="iBzqbrWYD7J2i10mPG2j-3" value="ADMIN HOST" style="html=1;whiteSpace=wrap;strokeColor=#8C4FFF;fontSize=30;" parent="1" vertex="1">
          <mxGeometry x="395" y="524" width="210" height="140" as="geometry" />
        </mxCell>
        <mxCell id="iBzqbrWYD7J2i10mPG2j-5" value="BACKUPS HOST" style="html=1;whiteSpace=wrap;strokeColor=#8C4FFF;fontSize=30;" parent="1" vertex="1">
          <mxGeometry x="395" y="724" width="210" height="140" as="geometry" />
        </mxCell>
        <mxCell id="TYMXvzNvSo3Lo1fEAk2X-8" style="edgeStyle=orthogonalEdgeStyle;rounded=0;orthogonalLoop=1;jettySize=auto;html=1;entryX=-0.417;entryY=0.542;entryDx=0;entryDy=0;strokeColor=#8C4FFF;strokeWidth=2;entryPerimeter=0;" parent="1" source="iBzqbrWYD7J2i10mPG2j-8" target="TOPCJg1FFOPqES8dCTAx-3" edge="1">
          <mxGeometry relative="1" as="geometry">
            <Array as="points">
              <mxPoint x="950" y="695" />
              <mxPoint x="950" y="636" />
            </Array>
            <mxPoint x="635" y="589" as="targetPoint" />
          </mxGeometry>
        </mxCell>
        <mxCell id="TYMXvzNvSo3Lo1fEAk2X-9" style="edgeStyle=orthogonalEdgeStyle;rounded=0;orthogonalLoop=1;jettySize=auto;html=1;entryX=-0.375;entryY=0.5;entryDx=0;entryDy=0;strokeColor=#8C4FFF;strokeWidth=2;entryPerimeter=0;" parent="1" source="iBzqbrWYD7J2i10mPG2j-8" target="TOPCJg1FFOPqES8dCTAx-18" edge="1">
          <mxGeometry relative="1" as="geometry">
            <Array as="points">
              <mxPoint x="950" y="695" />
              <mxPoint x="950" y="835" />
            </Array>
            <mxPoint x="635" y="795" as="targetPoint" />
          </mxGeometry>
        </mxCell>
        <mxCell id="iBzqbrWYD7J2i10mPG2j-8" value="" style="sketch=0;outlineConnect=0;fontColor=#232F3E;gradientColor=none;fillColor=#8C4FFF;strokeColor=none;dashed=0;verticalLabelPosition=bottom;verticalAlign=top;align=center;html=1;fontSize=12;fontStyle=0;aspect=fixed;pointerEvents=1;shape=mxgraph.aws4.customer_gateway;" parent="1" vertex="1">
          <mxGeometry x="1161" y="621" width="148" height="148" as="geometry" />
        </mxCell>
        <mxCell id="TYMXvzNvSo3Lo1fEAk2X-5" style="edgeStyle=orthogonalEdgeStyle;rounded=0;orthogonalLoop=1;jettySize=auto;html=1;entryX=-0.26;entryY=0.418;entryDx=0;entryDy=0;strokeWidth=2;strokeColor=#FF78DF;entryPerimeter=0;" parent="1" source="TYMXvzNvSo3Lo1fEAk2X-4" target="TOPCJg1FFOPqES8dCTAx-12" edge="1">
          <mxGeometry relative="1" as="geometry">
            <Array as="points">
              <mxPoint x="909" y="750" />
              <mxPoint x="667" y="750" />
            </Array>
            <mxPoint x="635" y="795" as="targetPoint" />
          </mxGeometry>
        </mxCell>
        <mxCell id="TYMXvzNvSo3Lo1fEAk2X-6" style="edgeStyle=orthogonalEdgeStyle;rounded=0;orthogonalLoop=1;jettySize=auto;html=1;entryX=-0.333;entryY=0.458;entryDx=0;entryDy=0;fontColor=#FF66FF;strokeColor=#FF78DF;strokeWidth=2;entryPerimeter=0;" parent="1" target="TOPCJg1FFOPqES8dCTAx-8" edge="1">
          <mxGeometry relative="1" as="geometry">
            <Array as="points">
              <mxPoint x="909" y="551" />
            </Array>
            <mxPoint x="909" y="868" as="sourcePoint" />
            <mxPoint x="635" y="575" as="targetPoint" />
          </mxGeometry>
        </mxCell>
        <mxCell id="TYMXvzNvSo3Lo1fEAk2X-4" value="" style="verticalLabelPosition=bottom;sketch=0;html=1;fillColor=#A153A0;strokeColor=#ffffff;verticalAlign=top;align=center;points=[[0,0.5,0],[0.125,0.25,0],[0.25,0,0],[0.5,0,0],[0.75,0,0],[0.875,0.25,0],[1,0.5,0],[0.875,0.75,0],[0.75,1,0],[0.5,1,0],[0.125,0.75,0]];pointerEvents=1;shape=mxgraph.cisco_safe.compositeIcon;bgIcon=mxgraph.cisco_safe.design.blank_device;resIcon=mxgraph.cisco_safe.design.access_switch_2;aspect=fixed;" parent="1" vertex="1">
          <mxGeometry x="859" y="882" width="100" height="90" as="geometry" />
        </mxCell>
        <mxCell id="TYMXvzNvSo3Lo1fEAk2X-12" value="ETH private" style="text;strokeColor=none;align=center;fillColor=none;html=1;verticalAlign=middle;whiteSpace=wrap;rounded=0;fontSize=22;" parent="1" vertex="1">
          <mxGeometry x="1032" y="665" width="127" height="30" as="geometry" />
        </mxCell>
        <mxCell id="TYMXvzNvSo3Lo1fEAk2X-13" value="Gateway" style="text;strokeColor=none;align=center;fillColor=none;html=1;verticalAlign=middle;whiteSpace=wrap;rounded=0;fontSize=22;" parent="1" vertex="1">
          <mxGeometry x="1186" y="588" width="96" height="30" as="geometry" />
        </mxCell>
        <mxCell id="TYMXvzNvSo3Lo1fEAk2X-14" value="Tunnelling" style="text;strokeColor=none;align=center;fillColor=none;html=1;verticalAlign=middle;whiteSpace=wrap;rounded=0;fontSize=22;" parent="1" vertex="1">
          <mxGeometry x="1173" y="773" width="127" height="30" as="geometry" />
        </mxCell>
        <mxCell id="TYMXvzNvSo3Lo1fEAk2X-15" value="Switch" style="text;strokeColor=none;align=center;fillColor=none;html=1;verticalAlign=middle;whiteSpace=wrap;rounded=0;fontSize=22;" parent="1" vertex="1">
          <mxGeometry x="732" y="912" width="127" height="30" as="geometry" />
        </mxCell>
        <mxCell id="TYMXvzNvSo3Lo1fEAk2X-19" value="" style="sketch=0;pointerEvents=1;shadow=0;dashed=0;html=1;strokeColor=none;fillColor=#0db7ed;aspect=fixed;labelPosition=center;verticalLabelPosition=bottom;verticalAlign=top;align=center;outlineConnect=0;shape=mxgraph.vvd.site_container;" parent="1" vertex="1">
          <mxGeometry x="1112" y="989" width="200" height="202.03" as="geometry" />
        </mxCell>
        <mxCell id="TYMXvzNvSo3Lo1fEAk2X-24" value="ETH public&lt;br&gt;80, 443" style="text;strokeColor=none;align=left;fillColor=none;html=1;verticalAlign=middle;whiteSpace=wrap;rounded=0;fontSize=22;spacingLeft=5;" parent="1" vertex="1">
          <mxGeometry x="1372" y="1020" width="118" height="56" as="geometry" />
        </mxCell>
        <mxCell id="TYMXvzNvSo3Lo1fEAk2X-25" value="B2 Host" style="text;strokeColor=none;align=center;fillColor=none;html=1;verticalAlign=middle;whiteSpace=wrap;rounded=0;fontSize=22;" parent="1" vertex="1">
          <mxGeometry x="1144" y="1183" width="133" height="56" as="geometry" />
        </mxCell>
        <mxCell id="TYMXvzNvSo3Lo1fEAk2X-26" style="edgeStyle=orthogonalEdgeStyle;rounded=0;orthogonalLoop=1;jettySize=auto;html=1;strokeWidth=2;strokeColor=#0DB7ED;exitX=1.294;exitY=0.502;exitDx=0;exitDy=0;exitPerimeter=0;entryX=0.462;entryY=1.049;entryDx=0;entryDy=0;entryPerimeter=0;" parent="1" source="TOPCJg1FFOPqES8dCTAx-31" target="TYMXvzNvSo3Lo1fEAk2X-4" edge="1">
          <mxGeometry relative="1" as="geometry">
            <Array as="points">
              <mxPoint x="905" y="1090" />
            </Array>
            <mxPoint x="1084" y="1090" as="sourcePoint" />
            <mxPoint x="906" y="990" as="targetPoint" />
          </mxGeometry>
        </mxCell>
        <mxCell id="TYMXvzNvSo3Lo1fEAk2X-28" style="edgeStyle=orthogonalEdgeStyle;rounded=0;orthogonalLoop=1;jettySize=auto;html=1;entryX=-0.195;entryY=0.418;entryDx=0;entryDy=0;exitX=-0.009;exitY=0.53;exitDx=0;exitDy=0;exitPerimeter=0;entryPerimeter=0;strokeWidth=2;" parent="1" source="TOPCJg1FFOPqES8dCTAx-39" target="TOPCJg1FFOPqES8dCTAx-43" edge="1">
          <mxGeometry relative="1" as="geometry">
            <mxPoint x="1689" y="692.9999999999998" as="sourcePoint" />
            <mxPoint x="1339" y="694" as="targetPoint" />
          </mxGeometry>
        </mxCell>
        <mxCell id="TYMXvzNvSo3Lo1fEAk2X-35" style="edgeStyle=orthogonalEdgeStyle;rounded=0;orthogonalLoop=1;jettySize=auto;html=1;entryX=0.5;entryY=1;entryDx=0;entryDy=0;strokeWidth=2;" parent="1" source="TYMXvzNvSo3Lo1fEAk2X-31" target="TOPCJg1FFOPqES8dCTAx-39" edge="1">
          <mxGeometry relative="1" as="geometry">
            <mxPoint x="1945" y="820.9999999999998" as="targetPoint" />
          </mxGeometry>
        </mxCell>
        <mxCell id="TYMXvzNvSo3Lo1fEAk2X-31" value="👨‍💼Admin" style="html=1;whiteSpace=wrap;strokeColor=#999999;fontSize=30;strokeWidth=2;" parent="1" vertex="1">
          <mxGeometry x="1817" y="964" width="210" height="140" as="geometry" />
        </mxCell>
        <mxCell id="TYMXvzNvSo3Lo1fEAk2X-37" value="ETH protected&lt;br&gt;22" style="text;strokeColor=none;align=left;fillColor=none;html=1;verticalAlign=middle;whiteSpace=wrap;rounded=0;fontSize=22;" parent="1" vertex="1">
          <mxGeometry x="1377" y="1109" width="153" height="56" as="geometry" />
        </mxCell>
        <mxCell id="TOPCJg1FFOPqES8dCTAx-1" value="" style="html=1;rounded=0;strokeColor=#8C4FFF;" parent="1" vertex="1">
          <mxGeometry x="605" y="621" width="30" height="30" as="geometry" />
        </mxCell>
        <mxCell id="TOPCJg1FFOPqES8dCTAx-2" value="" style="endArrow=none;html=1;rounded=0;align=center;verticalAlign=top;endFill=0;labelBackgroundColor=none;endSize=2;strokeColor=#8C4FFF;" parent="1" source="TOPCJg1FFOPqES8dCTAx-1" target="TOPCJg1FFOPqES8dCTAx-3" edge="1">
          <mxGeometry relative="1" as="geometry" />
        </mxCell>
        <mxCell id="TOPCJg1FFOPqES8dCTAx-3" value="" style="ellipse;html=1;fontSize=11;align=center;fillColor=none;points=[];aspect=fixed;resizable=0;verticalAlign=bottom;labelPosition=center;verticalLabelPosition=top;flipH=1;strokeColor=#8C4FFF;" parent="1" vertex="1">
          <mxGeometry x="657" y="632" width="8" height="8" as="geometry" />
        </mxCell>
        <mxCell id="TOPCJg1FFOPqES8dCTAx-4" value="&lt;span style=&quot;font-size: 22px;&quot;&gt;ETH private&lt;/span&gt;&lt;br style=&quot;padding: 0px; margin: 0px; font-size: 22px;&quot;&gt;&lt;div style=&quot;&quot;&gt;&lt;span style=&quot;font-size: 22px; background-color: initial;&quot;&gt;80, 443&lt;/span&gt;&lt;/div&gt;" style="text;html=1;align=left;verticalAlign=middle;resizable=0;points=[];autosize=1;strokeColor=none;fillColor=none;" parent="1" vertex="1">
          <mxGeometry x="683" y="516" width="140" height="70" as="geometry" />
        </mxCell>
        <mxCell id="TOPCJg1FFOPqES8dCTAx-6" value="" style="html=1;rounded=0;strokeColor=#8C4FFF;" parent="1" vertex="1">
          <mxGeometry x="605" y="536" width="30" height="30" as="geometry" />
        </mxCell>
        <mxCell id="TOPCJg1FFOPqES8dCTAx-7" value="" style="endArrow=none;html=1;rounded=0;align=center;verticalAlign=top;endFill=0;labelBackgroundColor=none;endSize=2;strokeColor=#8C4FFF;" parent="1" source="TOPCJg1FFOPqES8dCTAx-6" target="TOPCJg1FFOPqES8dCTAx-8" edge="1">
          <mxGeometry relative="1" as="geometry" />
        </mxCell>
        <mxCell id="TOPCJg1FFOPqES8dCTAx-8" value="" style="ellipse;html=1;fontSize=11;align=center;fillColor=none;points=[];aspect=fixed;resizable=0;verticalAlign=bottom;labelPosition=center;verticalLabelPosition=top;flipH=1;strokeColor=#8C4FFF;" parent="1" vertex="1">
          <mxGeometry x="657" y="547" width="8" height="8" as="geometry" />
        </mxCell>
        <mxCell id="TOPCJg1FFOPqES8dCTAx-9" value="&lt;span style=&quot;font-size: 22px;&quot;&gt;ETH private&lt;/span&gt;&lt;br style=&quot;padding: 0px; margin: 0px; font-size: 22px;&quot;&gt;&lt;div style=&quot;&quot;&gt;&lt;span style=&quot;font-size: 22px;&quot;&gt;22&lt;/span&gt;&lt;/div&gt;" style="text;html=1;align=left;verticalAlign=middle;resizable=0;points=[];autosize=1;strokeColor=none;fillColor=none;" parent="1" vertex="1">
          <mxGeometry x="683" y="601" width="140" height="70" as="geometry" />
        </mxCell>
        <mxCell id="TOPCJg1FFOPqES8dCTAx-10" value="" style="html=1;rounded=0;strokeColor=#8C4FFF;" parent="1" vertex="1">
          <mxGeometry x="605" y="736" width="30" height="30" as="geometry" />
        </mxCell>
        <mxCell id="TOPCJg1FFOPqES8dCTAx-11" value="" style="endArrow=none;html=1;rounded=0;align=center;verticalAlign=top;endFill=0;labelBackgroundColor=none;endSize=2;strokeColor=#8C4FFF;" parent="1" source="TOPCJg1FFOPqES8dCTAx-10" target="TOPCJg1FFOPqES8dCTAx-12" edge="1">
          <mxGeometry relative="1" as="geometry" />
        </mxCell>
        <mxCell id="TOPCJg1FFOPqES8dCTAx-12" value="" style="ellipse;html=1;fontSize=11;align=center;fillColor=none;points=[];aspect=fixed;resizable=0;verticalAlign=bottom;labelPosition=center;verticalLabelPosition=top;flipH=1;strokeColor=#8C4FFF;" parent="1" vertex="1">
          <mxGeometry x="657" y="747" width="8" height="8" as="geometry" />
        </mxCell>
        <mxCell id="TOPCJg1FFOPqES8dCTAx-16" value="" style="html=1;rounded=0;strokeColor=#8C4FFF;" parent="1" vertex="1">
          <mxGeometry x="605" y="820" width="30" height="30" as="geometry" />
        </mxCell>
        <mxCell id="TOPCJg1FFOPqES8dCTAx-17" value="" style="endArrow=none;html=1;rounded=0;align=center;verticalAlign=top;endFill=0;labelBackgroundColor=none;endSize=2;strokeColor=#8C4FFF;" parent="1" source="TOPCJg1FFOPqES8dCTAx-16" target="TOPCJg1FFOPqES8dCTAx-18" edge="1">
          <mxGeometry relative="1" as="geometry" />
        </mxCell>
        <mxCell id="TOPCJg1FFOPqES8dCTAx-18" value="" style="ellipse;html=1;fontSize=11;align=center;fillColor=none;points=[];aspect=fixed;resizable=0;verticalAlign=bottom;labelPosition=center;verticalLabelPosition=top;flipH=1;strokeColor=#8C4FFF;" parent="1" vertex="1">
          <mxGeometry x="657" y="831" width="8" height="8" as="geometry" />
        </mxCell>
        <mxCell id="TOPCJg1FFOPqES8dCTAx-19" value="&lt;span style=&quot;font-size: 22px;&quot;&gt;ETH private&lt;/span&gt;&lt;br style=&quot;padding: 0px; margin: 0px; font-size: 22px;&quot;&gt;&lt;div style=&quot;&quot;&gt;&lt;span style=&quot;font-size: 22px;&quot;&gt;21&lt;/span&gt;&lt;/div&gt;" style="text;html=1;align=left;verticalAlign=middle;resizable=0;points=[];autosize=1;strokeColor=none;fillColor=none;" parent="1" vertex="1">
          <mxGeometry x="683" y="715" width="140" height="70" as="geometry" />
        </mxCell>
        <mxCell id="TOPCJg1FFOPqES8dCTAx-20" value="&lt;span style=&quot;font-size: 22px;&quot;&gt;ETH private&lt;/span&gt;&lt;br style=&quot;padding: 0px; margin: 0px; font-size: 22px;&quot;&gt;&lt;div style=&quot;&quot;&gt;&lt;span style=&quot;font-size: 22px;&quot;&gt;22&lt;/span&gt;&lt;/div&gt;" style="text;html=1;align=left;verticalAlign=middle;resizable=0;points=[];autosize=1;strokeColor=none;fillColor=none;" parent="1" vertex="1">
          <mxGeometry x="683" y="800" width="140" height="70" as="geometry" />
        </mxCell>
        <mxCell id="TOPCJg1FFOPqES8dCTAx-21" value="&lt;font style=&quot;font-size: 30px;&quot;&gt;Private&lt;/font&gt;" style="text;html=1;align=center;verticalAlign=middle;resizable=0;points=[];autosize=1;strokeColor=none;fillColor=none;fontColor=#8C4FFF;textShadow=1;" parent="1" vertex="1">
          <mxGeometry x="292" y="1226" width="120" height="50" as="geometry" />
        </mxCell>
        <mxCell id="TOPCJg1FFOPqES8dCTAx-22" value="&lt;font style=&quot;font-size: 30px;&quot;&gt;&lt;u&gt;Organization&lt;/u&gt;&lt;/font&gt;" style="text;html=1;align=left;verticalAlign=middle;resizable=0;points=[];autosize=1;strokeColor=none;fillColor=none;" parent="1" vertex="1">
          <mxGeometry x="300" y="288" width="190" height="50" as="geometry" />
        </mxCell>
        <mxCell id="TOPCJg1FFOPqES8dCTAx-29" value="" style="html=1;rounded=0;flipH=1;direction=west;strokeColor=#0DB7ED;" parent="1" vertex="1">
          <mxGeometry x="1083" y="1075" width="30" height="30" as="geometry" />
        </mxCell>
        <mxCell id="TOPCJg1FFOPqES8dCTAx-30" value="" style="endArrow=none;html=1;rounded=0;align=center;verticalAlign=top;endFill=0;labelBackgroundColor=none;endSize=2;exitX=1;exitY=0.5;exitDx=0;exitDy=0;strokeColor=#0DB7ED;" parent="1" source="TOPCJg1FFOPqES8dCTAx-29" target="TOPCJg1FFOPqES8dCTAx-31" edge="1">
          <mxGeometry relative="1" as="geometry">
            <Array as="points" />
          </mxGeometry>
        </mxCell>
        <mxCell id="TOPCJg1FFOPqES8dCTAx-31" value="" style="ellipse;html=1;fontSize=11;align=center;fillColor=none;points=[];aspect=fixed;resizable=0;verticalAlign=bottom;labelPosition=center;verticalLabelPosition=top;flipH=1;strokeColor=#0DB7ED;" parent="1" vertex="1">
          <mxGeometry x="1058" y="1086" width="8" height="8" as="geometry" />
        </mxCell>
        <mxCell id="TOPCJg1FFOPqES8dCTAx-33" value="" style="html=1;rounded=0;strokeColor=#0DB7ED;" parent="1" vertex="1">
          <mxGeometry x="1312" y="1033" width="30" height="30" as="geometry" />
        </mxCell>
        <mxCell id="TOPCJg1FFOPqES8dCTAx-34" value="" style="endArrow=none;html=1;rounded=0;align=center;verticalAlign=top;endFill=0;labelBackgroundColor=none;endSize=2;strokeColor=#0DB7ED;" parent="1" source="TOPCJg1FFOPqES8dCTAx-33" target="TOPCJg1FFOPqES8dCTAx-35" edge="1">
          <mxGeometry relative="1" as="geometry" />
        </mxCell>
        <mxCell id="TOPCJg1FFOPqES8dCTAx-35" value="" style="ellipse;html=1;fontSize=11;align=center;fillColor=none;points=[];aspect=fixed;resizable=0;verticalAlign=bottom;labelPosition=center;verticalLabelPosition=top;flipH=1;strokeColor=#0DB7ED;" parent="1" vertex="1">
          <mxGeometry x="1364" y="1044" width="8" height="8" as="geometry" />
        </mxCell>
        <mxCell id="TOPCJg1FFOPqES8dCTAx-36" value="" style="html=1;rounded=0;strokeColor=#0DB7ED;" parent="1" vertex="1">
          <mxGeometry x="1312" y="1123" width="30" height="30" as="geometry" />
        </mxCell>
        <mxCell id="TOPCJg1FFOPqES8dCTAx-37" value="" style="endArrow=none;html=1;rounded=0;align=center;verticalAlign=top;endFill=0;labelBackgroundColor=none;endSize=2;strokeColor=#0DB7ED;" parent="1" source="TOPCJg1FFOPqES8dCTAx-36" target="TOPCJg1FFOPqES8dCTAx-38" edge="1">
          <mxGeometry relative="1" as="geometry" />
        </mxCell>
        <mxCell id="TOPCJg1FFOPqES8dCTAx-38" value="" style="ellipse;html=1;fontSize=11;align=center;fillColor=none;points=[];aspect=fixed;resizable=0;verticalAlign=bottom;labelPosition=center;verticalLabelPosition=top;flipH=1;strokeColor=#0DB7ED;" parent="1" vertex="1">
          <mxGeometry x="1364" y="1134" width="8" height="8" as="geometry" />
        </mxCell>
        <mxCell id="TOPCJg1FFOPqES8dCTAx-39" value="CC" style="image;aspect=fixed;perimeter=ellipsePerimeter;html=1;align=center;shadow=0;dashed=0;spacingTop=3;image=img/lib/active_directory/internet_cloud.svg;" parent="1" vertex="1">
          <mxGeometry x="1730" y="566" width="382.35" height="241" as="geometry" />
        </mxCell>
        <mxCell id="TOPCJg1FFOPqES8dCTAx-41" value="" style="html=1;rounded=0;strokeColor=#8C4FFF;" parent="1" vertex="1">
          <mxGeometry x="1309" y="680" width="30" height="30" as="geometry" />
        </mxCell>
        <mxCell id="TOPCJg1FFOPqES8dCTAx-42" value="" style="endArrow=none;html=1;rounded=0;align=center;verticalAlign=top;endFill=0;labelBackgroundColor=none;endSize=2;strokeColor=#8C4FFF;" parent="1" source="TOPCJg1FFOPqES8dCTAx-41" target="TOPCJg1FFOPqES8dCTAx-43" edge="1">
          <mxGeometry relative="1" as="geometry" />
        </mxCell>
        <mxCell id="TOPCJg1FFOPqES8dCTAx-43" value="" style="ellipse;html=1;fontSize=11;align=center;fillColor=none;points=[];aspect=fixed;resizable=0;verticalAlign=bottom;labelPosition=center;verticalLabelPosition=top;flipH=1;strokeColor=#8C4FFF;" parent="1" vertex="1">
          <mxGeometry x="1361" y="691" width="8" height="8" as="geometry" />
        </mxCell>
        <mxCell id="TOPCJg1FFOPqES8dCTAx-44" value="&lt;font style=&quot;font-size: 22px;&quot;&gt;ETH public&lt;/font&gt;" style="text;html=1;align=center;verticalAlign=middle;resizable=0;points=[];autosize=1;strokeColor=none;fillColor=none;" parent="1" vertex="1">
          <mxGeometry x="1340" y="655" width="130" height="40" as="geometry" />
        </mxCell>
        <mxCell id="TOPCJg1FFOPqES8dCTAx-45" style="edgeStyle=orthogonalEdgeStyle;rounded=0;orthogonalLoop=1;jettySize=auto;html=1;entryX=-0.062;entryY=0.486;entryDx=0;entryDy=0;entryPerimeter=0;dashed=1;strokeWidth=4;endArrow=none;endFill=0;" parent="1" source="TYMXvzNvSo3Lo1fEAk2X-4" target="TYMXvzNvSo3Lo1fEAk2X-31" edge="1">
          <mxGeometry relative="1" as="geometry">
            <Array as="points">
              <mxPoint x="1600" y="927" />
              <mxPoint x="1600" y="1034" />
              <mxPoint x="1804" y="1034" />
            </Array>
          </mxGeometry>
        </mxCell>
        <mxCell id="TOPCJg1FFOPqES8dCTAx-46" value="&lt;font style=&quot;font-size: 50px;&quot;&gt;CLOUD&lt;/font&gt;" style="text;html=1;align=center;verticalAlign=middle;resizable=0;points=[];autosize=1;strokeColor=none;fillColor=none;textShadow=1;fontColor=#FFFFFF;" parent="1" vertex="1">
          <mxGeometry x="1821.17" y="650" width="200" height="70" as="geometry" />
        </mxCell>
        <mxCell id="z8-SKOe2W_GTO7jJAcqD-1" value="&lt;font style=&quot;font-size: 22px;&quot;&gt;&lt;b&gt;VPN&lt;/b&gt;&lt;/font&gt;" style="text;html=1;align=center;verticalAlign=middle;resizable=0;points=[];autosize=1;strokeColor=none;fillColor=none;shadow=1;" parent="1" vertex="1">
          <mxGeometry x="1380" y="885" width="70" height="40" as="geometry" />
        </mxCell>
      </root>
    </mxGraphModel>
  </diagram>
</mxfile>
